<svg xmlns="http://www.w3.org/2000/svg" viewBox="0 0 1280 720" role="img" aria-labelledby="title desc">
  <title id="title">Professional Portfolio Website Preview</title>
  <desc id="desc">High-fidelity mock matching kylejbonachita.github.io structure: sticky navbar, hero section, About cards, and featured projects.</desc>
  <defs>
    <linearGradient id="siteBg" x1="0" y1="0" x2="1" y2="1">
      <stop offset="0" stop-color="#f4faf9"/>
      <stop offset="1" stop-color="#edf6f6"/>
    </linearGradient>
    <linearGradient id="heroGrad" x1="0" y1="0" x2="1" y2="1">
      <stop offset="0" stop-color="#13343b"/>
      <stop offset="0.58" stop-color="#21808d"/>
      <stop offset="1" stop-color="#2da6b2"/>
    </linearGradient>
    <filter id="shadow" x="-20%" y="-20%" width="140%" height="140%">
      <feDropShadow dx="0" dy="6" stdDeviation="9" flood-color="#13343b" flood-opacity="0.16"/>
    </filter>
  </defs>

  <rect width="1280" height="720" fill="url(#siteBg)"/>
  <circle cx="140" cy="100" r="180" fill="#06b6d4" opacity="0.08"/>
  <circle cx="1160" cy="40" r="220" fill="#f59e0b" opacity="0.08"/>

  <rect x="58" y="30" width="1164" height="64" rx="10" fill="#ffffff" stroke="#d5e3e4" filter="url(#shadow)"/>
  <text x="86" y="70" fill="#13343b" font-family="Segoe UI, Arial, sans-serif" font-size="26" font-weight="700">💻 KyleJosefB</text>
  <text x="698" y="68" fill="#626c71" font-family="Segoe UI, Arial, sans-serif" font-size="16">Home</text>
  <text x="758" y="68" fill="#626c71" font-family="Segoe UI, Arial, sans-serif" font-size="16">About</text>
  <text x="823" y="68" fill="#626c71" font-family="Segoe UI, Arial, sans-serif" font-size="16">Experience</text>
  <text x="918" y="68" fill="#626c71" font-family="Segoe UI, Arial, sans-serif" font-size="16">Projects</text>
  <text x="993" y="68" fill="#626c71" font-family="Segoe UI, Arial, sans-serif" font-size="16">Tech</text>
  <text x="1045" y="68" fill="#626c71" font-family="Segoe UI, Arial, sans-serif" font-size="16">Contact</text>

  <rect x="58" y="112" width="1164" height="242" rx="18" fill="url(#heroGrad)" filter="url(#shadow)"/>
  <circle cx="100" cy="136" r="120" fill="#ffffff" opacity="0.14"/>
  <circle cx="1150" cy="324" r="135" fill="#ffffff" opacity="0.12"/>

  <text x="98" y="182" fill="#fcfcf9" font-family="Segoe UI, Arial, sans-serif" font-size="42" font-weight="700">Kyle Josef M. Bonachita</text>
  <text x="98" y="214" fill="#d9f5f8" font-family="Segoe UI, Arial, sans-serif" font-size="22" font-weight="600">Full-Stack Developer &amp; AI Data Specialist</text>
  <rect x="98" y="235" width="620" height="16" rx="6" fill="#dce8ea" opacity="0.82"/>
  <rect x="98" y="258" width="560" height="16" rx="6" fill="#dce8ea" opacity="0.7"/>
  <rect x="98" y="291" width="176" height="38" rx="11" fill="#32b8c6"/>
  <rect x="286" y="291" width="200" height="38" rx="11" fill="#ffffff" opacity="0.2"/>

  <circle cx="1040" cy="236" r="94" fill="#ffffff" opacity="0.2"/>
  <circle cx="1040" cy="236" r="78" fill="#ffffff" opacity="0.3"/>
  <rect x="955" y="305" width="170" height="14" rx="6" fill="#e9f9fa" opacity="0.92"/>

  <text x="58" y="392" fill="#13343b" font-family="Segoe UI, Arial, sans-serif" font-size="26" font-weight="700">About Me</text>
  <rect x="58" y="408" width="58" height="5" rx="2.5" fill="#21808d"/>

  <rect x="58" y="430" width="684" height="240" rx="16" fill="#ffffff" stroke="#d8e4e6" filter="url(#shadow)"/>
  <text x="90" y="468" fill="#21808d" font-family="Segoe UI, Arial, sans-serif" font-size="24" font-weight="700">My Journey</text>
  <rect x="90" y="486" width="620" height="14" rx="5" fill="#69757a" opacity="0.6"/>
  <rect x="90" y="507" width="620" height="14" rx="5" fill="#69757a" opacity="0.52"/>
  <text x="90" y="548" fill="#21808d" font-family="Segoe UI, Arial, sans-serif" font-size="24" font-weight="700">My Aspirations</text>
  <rect x="90" y="566" width="620" height="14" rx="5" fill="#69757a" opacity="0.55"/>
  <rect x="90" y="587" width="560" height="14" rx="5" fill="#69757a" opacity="0.45"/>

  <rect x="770" y="430" width="452" height="240" rx="16" fill="#ffffff" stroke="#d8e4e6" filter="url(#shadow)"/>
  <rect x="796" y="456" width="190" height="84" rx="12" fill="#f5fbfb" stroke="#d8e4e6"/>
  <rect x="1002" y="456" width="190" height="84" rx="12" fill="#f5fbfb" stroke="#d8e4e6"/>
  <rect x="796" y="554" width="190" height="84" rx="12" fill="#f5fbfb" stroke="#d8e4e6"/>
  <rect x="1002" y="554" width="190" height="84" rx="12" fill="#f5fbfb" stroke="#d8e4e6"/>
  <circle cx="830" cy="490" r="10" fill="#21808d"/>
  <circle cx="1036" cy="490" r="10" fill="#21808d"/>
  <circle cx="830" cy="588" r="10" fill="#21808d"/>
  <circle cx="1036" cy="588" r="10" fill="#21808d"/>
  <rect x="848" y="481" width="124" height="10" rx="4" fill="#13343b"/>
  <rect x="1054" y="481" width="124" height="10" rx="4" fill="#13343b"/>
  <rect x="848" y="579" width="124" height="10" rx="4" fill="#13343b"/>
  <rect x="1054" y="579" width="124" height="10" rx="4" fill="#13343b"/>
</svg>
